<svg width="58" height="24" viewBox="0 0 58 24" xmlns="http://www.w3.org/2000/svg">
    <g fill="#635BFF" fill-rule="evenodd">
        <path d="M57.6 12.4c0-4.1-1.984-7.337-5.776-7.337-3.808 0-6.112 3.236-6.112 7.305 0 4.823 2.72 7.258 6.624 7.258 1.904 0 3.344-.432 4.432-1.041V15.38c-1.088.544-2.336.88-3.92.88-1.552 0-2.928-.544-3.104-2.435h7.824c0-.208.032-1.041.032-1.425zm-7.904-1.521c0-1.81 1.104-2.564 2.112-2.564.976 0 2.016.753 2.016 2.564h-4.128zM39.536 5.063c-1.568 0-2.576.737-3.136 1.25l-.208-.994h-3.52V24l4-.85.016-4.533c.576.416 1.424 1.01 2.832 1.01 2.864 0 5.472-2.308 5.472-7.387-.016-4.646-2.656-7.177-5.456-7.177zm-.96 11.038c-.944 0-1.504-.336-1.888-.753l-.016-5.943c.416-.465.992-.786 1.904-.786 1.456 0 2.464 1.635 2.464 3.733 0 2.147-.992 3.75-2.464 3.75zM27.168 4.117l4.016-.865V0l-4.016.85zM27.168 5.335h4.016v14.019h-4.016zM22.864 6.52l-.256-1.185h-3.456v14.019h4v-9.5c.944-1.235 2.544-1.01 3.04-.834V5.335c-.512-.192-2.384-.545-3.328 1.186zM14.864 1.858l-3.904.834-.016 12.833c0 2.37 1.776 4.117 4.144 4.117 1.312 0 2.272-.24 2.8-.529v-3.252c-.512.208-3.04.945-3.04-1.426V8.748h3.04V5.335h-3.04l.016-3.477zM4.048 9.405c0-.625.512-.866 1.36-.866 1.216 0 2.752.369 3.968 1.026V5.8c-1.328-.529-2.64-.737-3.968-.737C2.16 5.063 0 6.76 0 9.597c0 4.422 6.08 3.717 6.08 5.623 0 .737-.64.978-1.536.978-1.328 0-3.024-.545-4.368-1.282v3.813c1.488.64 2.992.913 4.368.913 3.328 0 5.616-1.65 5.616-4.518-.016-4.774-6.112-3.925-6.112-5.72z"/>
    </g>
</svg>
